<?xml version="1.0" encoding="UTF-8"?><svg id="Layer_2" xmlns="http://www.w3.org/2000/svg" viewBox="0 0 1416.45 655.88"><defs><style>.cls-1,.cls-2{fill:#3fb549;}.cls-2{fill-rule:evenodd;}</style></defs><g id="MATTE_VIBRANT_GREEN_ACRYLIC_SHEET"><path class="cls-1" d="M197.39,599.3s-.01-.06-.04-.09c-.02-.02-.05-.04-.08-.04h-13.01s-.09.03-.11.07c-1.76,3.88-4.91,11.22-8.56,19.71-1.54,3.58-3.15,7.34-4.74,11.03-1.18,2.55-2.52,5.84-3.97,9.76h-.13c-1.28-3.61-2.74-7.3-3.89-9.9-2.78-6.26-5.48-12.5-7.86-18.01-2.3-5.33-4.29-9.93-5.52-12.59-.02-.04-.06-.07-.11-.07h-14.12s-.06.01-.08.04c-.02.02-.04.06-.04.09.15,7.24.15,15.36.15,27.64s0,19.8-.22,27.78c0,.03.01.06.04.09.02.02.05.04.08.04h9.83s.06-.01.08-.04c.02-.02.04-.06.04-.09-.23-11.49-.37-19.33-.37-31.18-.05-2.69-.17-5.54-.29-8.29-.08-1.84-.17-3.73-.23-5.58l.25-.04c1.62,4.88,3.09,8.82,4.48,12.03l14.34,33.11s.06.07.11.07h4.88s.09-.03.11-.07l14.12-32.37c1.35-3.09,2.87-7.38,4.41-12.4l.17.03c-.04,1-.07,2.02-.11,3.04-.13,3.37-.26,6.86-.26,10.02-.07,12.08-.15,20.81-.52,31.63,0,.03.01.06.04.09.02.02.05.04.08.04h11.01s.06-.01.09-.04c.02-.02.03-.06.03-.09-.31-8.31-.37-16.79-.37-27.78,0-12.77.08-20.78.3-27.64Z"/><path class="cls-1" d="M235.33,599.21s-.05-.04-.08-.04h-11.23s-.06.01-.08.04c-.02.02-.04.06-.04.09.22,7.9.22,15.79.22,27.71s0,19.73-.22,27.71c0,.03.01.06.04.09.02.02.05.04.08.04h11.23s.06-.01.08-.04c.02-.02.04-.06.04-.09-.22-8.05-.22-15.9-.22-27.78s0-19.81.22-27.64c0-.03-.01-.06-.04-.09Z"/><path class="cls-1" d="M310.67,599.18h-10.05s-.06.01-.09.04c-.02.03-.03.06-.03.09.39,5.53.59,19.17.59,29.78,0,3.66.19,7.68.58,12.29-1.55-3.61-3.38-7.1-5.16-9.84-3.4-5.21-7.55-11.32-11.21-16.7-4.81-7.07-8.96-13.18-10.29-15.59-.02-.04-.06-.06-.11-.06h-13.15s-.06.01-.08.04c-.02.02-.04.06-.04.09.15,6.8.15,16.03.15,27.71s-.07,20.19-.15,27.71c0,.03.01.06.04.08s.05.04.08.04h10.13s.06-.01.08-.04c.02-.02.04-.06.04-.09-.12-3.25-.14-10.4-.18-20.3-.01-3.18-.02-6.66-.04-10.44-.06-3.68-.25-7.82-.56-13,1.55,3.4,3.55,7.06,5.81,10.63,9.58,13.87,19.18,27.85,22.09,33.17.02.04.06.06.11.06h11.38s.06-.01.08-.04c.02-.02.04-.06.04-.09-.15-7.31-.15-15.46-.15-27.78,0-10.11.11-18.64.19-24.87l.04-2.77s-.01-.06-.04-.08-.05-.04-.08-.04ZM301.51,635.5c-.02-.35-.03-.7-.05-1.04.02.35.03.69.05,1.04Z"/><path class="cls-1" d="M348.45,599.21s-.05-.04-.08-.04h-11.23s-.06.01-.08.04c-.02.02-.04.06-.04.09.22,7.9.22,15.79.22,27.71s0,19.73-.22,27.71c0,.03.01.06.04.09.02.02.05.04.08.04h11.23s.06-.01.08-.04c.02-.02.04-.06.04-.09-.22-8.05-.22-15.9-.22-27.78s0-19.81.22-27.64c0-.03-.01-.06-.04-.09Z"/><path class="cls-1" d="M401.62,624.86s-.06-.02-.09-.04c-3.4.22-11.04.22-16.1.22-4.7,0-12.56,0-15.88-.22-.05,0-.06,0-.09.03-.02.02-.04.06-.04.09,0,.72.02,1.44.04,2.18.02.77.04,1.57.04,2.4s-.02,1.58-.04,2.36c-.02.78-.04,1.55-.04,2.37,0,.03.01.06.04.09.02.02.05.03.08.03h0c3.44-.15,11.36-.22,15.89-.22s12.59.07,16.11.22h0s.06-.01.08-.04.04-.06.04-.09c-.07-1.63-.07-3.13-.07-4.73s0-3.1.07-4.58c0-.03-.01-.06-.04-.09Z"/><path class="cls-1" d="M459.35,619.48s.07.02.1.04c1.32-.15,3.27-.15,5.53-.15,2.39,0,4.41.1,5.16.15h0c.06,0,.12-.05.12-.11.07-1.04.07-1.86.07-2.89,0-5-1.98-9.5-5.58-12.67-4.23-3.73-10.43-5.63-18.41-5.63-17.57,0-27.24,10.04-27.24,28.28,0,8.93,2.4,16.32,6.94,21.38,4.66,5.19,11.6,7.93,20.08,7.93,5.17,0,9.31-.76,12.72-2.14.05-.02.09-.04.13-.06,1.55-.64,2.92-1.43,4.12-2.36.1-.08.19-.15.29-.23.53-.43,1.14-.8,1.6-1.29.44-.48.74-1.13,1.12-1.66.19-.26.37-.53.54-.81.67-1.06,1.25-2.24,1.72-3.53.12-.33.23-.69.34-1.04.42-1.35.78-2.81,1.02-4.43.03-.23.05-.48.08-.72.47-3.57.64-7.61.3-12.61,0-.06-.06-.11-.12-.11h0c-2.51.07-5.13.09-7.56.09-2.45,0-4.7-.03-6.55-.02-3.3,0-7.83,0-12.34-.15h0s-.06.01-.08.04c-.02.02-.04.06-.04.09.07,1.25.07,2.72.07,4.57,0,.8,0,2.29-.07,3.01,0,.04,0,.07.03.1.02.02.06.04.09.04h0c2.75-.1,6.8-.13,10.72-.17,1.91-.01,3.77-.03,5.42-.05.1,5.4-.85,8.94-2.98,11.11-2.04,2.09-5.26,3.05-10.13,3.05-10.91,0-16.21-6.51-16.21-19.9s5.06-19.02,15.92-19.02c8.7,0,13.11,3.34,13.11,9.93,0,.52,0,1.18-.07,1.83,0,.04,0,.07.04.1ZM457.19,654.12c.07-.02.14-.03.21-.06-.07.02-.14.04-.21.06ZM461.06,652.42c.25-.14.5-.27.74-.42-.23.15-.49.28-.74.42ZM464.82,649.56c-.09.1-.23.17-.33.27.19-.2.38-.4.56-.61-.09.1-.14.25-.23.34ZM467.4,645.73c.08-.16.16-.31.23-.47-.07.16-.15.31-.23.47Z"/><path class="cls-1" d="M518.94,598.14c-8.22,0-15.05,2.44-19.75,7.05-5.02,4.92-7.57,12.06-7.57,21.23,0,18.45,10.21,29.46,27.32,29.46s27.46-11.01,27.46-29.46c0-9.16-2.56-16.3-7.61-21.23-4.73-4.61-11.59-7.05-19.85-7.05ZM535.08,626.79c0,12.31-5.7,19.09-16.06,19.09s-16.21-6.78-16.21-19.09,5.6-18.72,16.21-18.72,16.06,6.65,16.06,18.72Z"/><path class="cls-1" d="M604.5,644.82s-.01-.06-.04-.08c-.02-.02-.05-.04-.08-.04h0c-7.64.22-16.93.22-23.75.22,0-2.16-.02-4.79-.03-7.61-.02-3.36-.04-6.98-.04-10.45,0-12.52.14-23.08.37-27.56,0-.03-.01-.06-.03-.09-.02-.02-.06-.04-.09-.04h-11.31s-.06.01-.09.04c-.02.02-.03.06-.03.09.22,5.25.22,14.18.22,27.71,0,7.27-.08,14.18-.15,19.73-.04,3.46-.07,6.18-.07,7.98,0,.06.06.12.12.12h34.88c.06,0,.12-.06.12-.12,0-.81-.02-1.61-.04-2.43-.02-.83-.04-1.67-.04-2.53,0-.81.02-1.64.04-2.47.02-.83.04-1.67.04-2.48Z"/><path class="cls-1" d="M667.27,599.3c0-.06-.06-.12-.12-.12h-42.2s-.06.01-.08.04c-.02.02-.04.06-.04.09.22,7.53.22,16,.22,27.71s-.07,19.89-.22,27.71c0,.03.01.06.04.09.02.02.05.04.08.04h11.38s.06-.01.09-.04c.02-.02.03-.06.03-.09-.22-5.04-.29-12.11-.37-18.95v-.44c4.35,0,8.72.02,12.95.05,6.22.03,12.1.07,17.45.03.06,0,.12-.06.12-.12,0-2.16,0-6.65.14-9.01,0-.04,0-.07-.03-.09s-.06-.04-.09-.04c-9.03.15-19.62.22-30.62.22v-.92c0-4.71,0-11.14.07-16.58,8.71,0,19.31.07,30.53.14h.55s.06,0,.08-.03.04-.05.04-.08c0-.7-.02-1.51-.04-2.36-.02-.92-.04-1.89-.04-2.81,0-.78.02-1.64.04-2.46.02-.73.04-1.42.04-1.98Z"/><path class="cls-1" d="M745.91,599.18h-21.88s-.06.01-.08.04c-.02.02-.04.06-.04.09.22,6.8.22,16.06.22,27.79s0,20.02-.22,27.63c0,.03.01.06.04.09.02.02.05.04.08.04h21.65c19.4,0,27.68-8.52,27.68-28.5s-7.96-27.17-27.46-27.17ZM735.31,609.09c3.32-.15,6.79-.22,10.6-.22,10.41,0,16.43,2.89,16.43,17.69s-6.4,18.58-16.73,18.58c-3.91,0-6.74,0-10.38-.21-.07-3.98-.07-9.1-.07-17.55,0-6.44.08-13.14.14-18.29Z"/><path class="cls-1" d="M839.28,599.22s-.06-.04-.09-.04h-42.64s-.06.01-.08.04c-.02.02-.04.06-.04.09.22,6.58.22,15.91.22,27.71s0,20.69-.22,27.71c0,.03.01.06.04.09.02.02.05.04.08.04h42.64s.06-.01.09-.04c.02-.03.03-.06.03-.09-.07-1.18-.07-3.22-.07-4.57,0-1.65,0-3.91.07-5.09,0-.04,0-.06-.03-.09-.02-.02-.06-.04-.09-.04-9.1.06-22.25.15-31.59.15v-14.02c10.4,0,22.16,0,30.84.15.03,0,.06-.01.08-.04s.04-.05.04-.08c0-2.03,0-6.8.07-8.79,0-.03-.01-.06-.04-.09s-.05-.04-.08-.04h0c-8.83.22-20.55.22-30.91.22v-13.8c8.92,0,20.98.07,31.59.15.03,0,.06-.01.09-.04.02-.03.03-.06.03-.09-.07-1.11-.07-3.42-.07-4.94,0-1.43,0-3.4.07-4.35,0-.03,0-.06-.03-.09Z"/><path class="cls-1" d="M899.11,644.82s-.01-.06-.04-.08c-.02-.02-.05-.04-.08-.04h0c-7.64.22-16.93.22-23.75.22,0-2.16-.02-4.79-.03-7.61-.02-3.36-.04-6.98-.04-10.45,0-12.52.14-23.08.37-27.56,0-.03-.01-.06-.03-.09-.02-.02-.06-.04-.09-.04h-11.31s-.06.01-.09.04c-.02.02-.03.06-.03.09.22,5.25.22,14.18.22,27.71,0,7.27-.08,14.18-.15,19.73-.04,3.46-.07,6.18-.07,7.98,0,.06.06.12.12.12h34.88c.06,0,.12-.06.12-.12,0-.81-.02-1.61-.04-2.43-.02-.83-.04-1.67-.04-2.53,0-.81.02-1.64.04-2.47.02-.83.04-1.67.04-2.48Z"/><path class="cls-1" d="M931.1,599.21s-.05-.04-.08-.04h-11.23s-.06.01-.08.04c-.02.02-.04.06-.04.09.22,7.9.22,15.79.22,27.71s0,19.73-.22,27.71c0,.03.01.06.04.09.02.02.05.04.08.04h11.23s.06-.01.08-.04c.02-.02.04-.06.04-.09-.22-8.05-.22-15.9-.22-27.78s0-19.81.22-27.64c0-.03-.01-.06-.04-.09Z"/><path class="cls-1" d="M1005.85,599.18h-12.27c-.06,0-.1.04-.12.09-1.18,4.35-5.14,16.79-8.64,27.77-.91,2.85-1.79,5.62-2.59,8.15-1.47,4.27-2.49,7.6-3.32,10.29l-.26.85c-.71-2.62-1.77-5.91-3.44-10.91-.92-2.87-1.95-6.03-3-9.26-3.58-10.98-7.28-22.33-8.3-26.87-.01-.05-.06-.09-.12-.09h-13s-.08.02-.1.06c-.02.03-.03.07-.01.11,5.12,12.15,16.2,44.87,19.66,55.42.01.05.06.08.11.08h0c1.62-.07,4.18-.07,8.05-.07,3.13,0,5.84,0,7.98.07h0c.05,0,.1-.04.12-.09,2.71-8.87,14.33-42.56,19.36-55.42.01-.04,0-.07-.01-.11-.02-.03-.06-.05-.1-.05Z"/><path class="cls-1" d="M1068.02,599.22s-.06-.04-.09-.04h-42.64s-.06.01-.08.04c-.02.02-.04.06-.04.09.22,6.58.22,15.91.22,27.71s0,20.69-.22,27.71c0,.03.01.06.04.09.02.02.05.04.08.04h42.64s.06-.01.09-.04c.02-.03.03-.06.03-.09-.07-1.18-.07-3.22-.07-4.57,0-1.65,0-3.91.07-5.09,0-.04,0-.06-.03-.09-.02-.02-.06-.04-.09-.04-9.1.06-22.25.15-31.59.15v-14.02c10.4,0,22.16,0,30.84.15.03,0,.06-.01.08-.04s.04-.05.04-.08c0-2.03,0-6.8.07-8.79,0-.03-.01-.06-.04-.09s-.05-.04-.08-.04h0c-8.83.22-20.55.22-30.91.22v-13.8c8.92,0,20.98.07,31.59.15.03,0,.06-.01.09-.04.02-.03.03-.06.03-.09-.07-1.11-.07-3.42-.07-4.94,0-1.43,0-3.4.07-4.35,0-.03,0-.06-.03-.09Z"/><path class="cls-1" d="M1139.09,643.16c-2.65-7.73-5.14-9.88-12.63-10.86v-.08c9.02-1.55,13.23-6.66,13.23-16.07,0-11.1-7.15-16.97-20.66-16.97h-26.09s-.06.01-.08.04c-.02.02-.04.06-.04.08.16,8.51.22,16.54.22,27.72,0,8.49-.08,15.06-.14,20.86-.03,2.33-.06,4.58-.08,6.85,0,.03.01.06.04.08s.05.04.08.04h11.45s.06-.01.09-.04c.02-.02.03-.06.03-.09-.36-4.49-.59-11.12-.67-19.16,3.46,0,5.87-.02,8-.04,1.86-.02,3.57-.03,5.71-.03,6.76,0,8.11,2.43,11.41,13.73,1.3,4.77,1.54,5.63,3.66,5.63h10.42s.08-.02.1-.06c.02-.03.03-.07.01-.11-.87-2.07-2.14-5.82-3.6-10.15l-.46-1.37ZM1120.17,608.38c1.22.12,2.25.34,3.19.62.68.21,1.32.46,1.87.77.44.25.86.52,1.22.83.58.53,1.05,1.17,1.42,1.9.24.48.44,1.02.59,1.6.18.67.28,1.45.35,2.26.03.44.08.85.08,1.33,0,6.07-3.81,9.41-10.75,9.41-6.81-.08-11.88-.15-14.37-.22-.05-3.94-.03-7.96-.01-12.2,0-2.08.02-4.17.02-6.27,3.92-.15,10.45-.22,13.04-.22.97,0,1.84.04,2.67.1.23.02.47.03.7.06Z"/><path class="cls-1" d="M1207.43,599.22s-.06-.04-.09-.04h-42.64s-.06.01-.08.04c-.02.02-.04.06-.04.09.22,6.58.22,15.91.22,27.71s0,20.69-.22,27.71c0,.03.01.06.04.09.02.02.05.04.08.04h42.64s.06-.01.09-.04c.02-.03.03-.06.03-.09-.07-1.18-.07-3.22-.07-4.57,0-1.65,0-3.91.07-5.09,0-.04,0-.06-.03-.09-.02-.02-.06-.04-.09-.04-9.1.06-22.25.15-31.59.15v-14.02c10.4,0,22.16,0,30.84.15.03,0,.06-.01.08-.04s.04-.05.04-.08c0-2.03,0-6.8.07-8.79,0-.03-.01-.06-.04-.09s-.05-.04-.08-.04h0c-8.83.22-20.55.22-30.91.22v-13.8c8.92,0,20.98.07,31.59.15.03,0,.06-.01.09-.04.02-.03.03-.06.03-.09-.07-1.11-.07-3.42-.07-4.94,0-1.43,0-3.4.07-4.35,0-.03,0-.06-.03-.09Z"/><path class="cls-1" d="M1253.92,599.18h-21.88s-.06.01-.08.04c-.02.02-.04.06-.04.09.22,6.8.22,16.06.22,27.79s0,20.02-.22,27.63c0,.03.01.06.04.09.02.02.05.04.08.04h21.65c19.4,0,27.68-8.52,27.68-28.5s-7.96-27.17-27.46-27.17ZM1243.31,609.09c3.32-.15,6.79-.22,10.6-.22,10.41,0,16.43,2.89,16.43,17.69s-6.4,18.58-16.73,18.58c-3.91,0-6.74,0-10.38-.21-.07-3.98-.07-9.1-.07-17.55,0-6.44.08-13.14.14-18.29Z"/><path class="cls-2" d="M614.56,491.34c-16.39-2.95-27.95-9.67-27.95-17.28,0-5.83,6.71-11.04,17.22-14.48.39-.13.81.07.95.45,1.53,4,5.84,15.09,8.18,21.12.31.79,1.49.56,1.47-.29l-9.94-453.65c-.23-10.13,5.28-18.53,12.17-18.53,5.11,0,9.67,4.69,11.43,11.76l22.9,460.29c.04.83,1.19,1.01,1.47.23,2.25-6.12,6.81-18.39,8.22-21.63.15-.35.55-.53.91-.43,11.79,3.41,19.46,8.94,19.46,15.17,0,7.85-12.28,14.77-29.53,17.56-.06.01-.12.02-.18.03-5.4.86-11.29,1.33-17.46,1.33-6.86,0-13.38-.58-19.27-1.63-.02,0-.05,0-.08-.01Z"/><path class="cls-1" d="M159.64,315.8c.8-18.15,1.21-31.85,1.21-42.34,0-29.43-3.63-35.89-10.48-35.89-8.47,0-12.5,6.05-12.5,88.32s4.03,91.94,12.5,91.94c7.66,0,10.89-10.48,10.89-40.32,0-10.48-.41-22.58-1.22-35.09h49.61c.41,11.7.41,22.58.41,45.97,0,72.19-16.94,98.4-60.5,98.4-47.59,0-63.71-30.65-63.71-160.9s18.15-148.81,64.12-148.81c41.54,0,60.09,18.15,60.09,90.33,0,22.18-.41,34.68-.81,48.39h-49.6Z"/><path class="cls-1" d="M280.62,180.71c-.8,22.18-1.21,84.28-1.61,149.21,0,22.58.41,53.63.41,77.83,8.07-.41,11.57-.32,20.44-.72-1.21,21.39,7.01,62.96,16.66,76.2.23.32-92.75-.07-92.75-.07,0-19.76.8-86.71.8-151.23,0-68.15,0-122.59-.8-151.22h56.86Z"/><path class="cls-1" d="M440.31,180.71c-.41,30.24-.41,60.49-.41,104.85v121.79c0,56.06-13.71,79.45-62.91,79.45s-63.32-23.39-63.32-79.45c0-41.13.41-91.14.41-121.79,0-44.36-.41-74.6-.8-104.85h54.04c-.41,61.29-.41,156.87-.41,214.54,0,13.71,3.23,18.96,11.29,18.96s10.88-5.24,10.88-18.96c0-57.26-.4-153.64-.8-214.54h52.02Z"/><path class="cls-1" d="M548.39,332.75c6.05.8,11.29,1.61,15.32,4.03,14.11,8.47,18.55,33.87,18.55,66.54,0,61.7-10.89,79.85-55.25,79.85h-70.98c.81-42.34.81-86.71.81-151.23s0-109.28-.81-151.22h70.17c36.7,0,55.25,13.71,55.25,75.81,0,45.57-4.44,58.88-17.34,68.56-4.03,3.23-9.28,4.84-15.73,5.65v2.02ZM516.53,230.31c-2.42,0-5.25,0-8.47.41-.41,22.18-.41,52.83-.41,79.45h8.07c10.89-.41,15.33-10.09,15.33-42.34s-4.03-37.51-14.52-37.51M531.85,390.41c0-33.87-4.44-42.34-14.52-42.34-2.82,0-6.05,0-9.68.41,0,25,0,56.05.41,81.05,3.63.41,6.45.41,8.87.41,10.89,0,14.92-6.05,14.92-39.52"/><path class="cls-1" d="M816.69,315.31c2.42,133.08-5.24,170.58-61.3,170.58-50,0-65.73-31.45-65.73-158.88s16.94-150.82,66.94-150.82c45.17,0,60.89,18.95,60.89,90.33,0,8.47-.41,17.75-.8,27.83-6.86,0-14.12-.4-25.41-.4-10.08,0-18.55,0-25.41.4.4-8.87.8-17.34.8-23.39,0-27.83-3.22-34.68-10.88-34.68-10.48,0-14.92,12.91-14.92,90.74s4.44,93.15,16.54,93.15c9.27,0,12.5-8.87,12.9-48.8-5.24,0-10.89.41-15.33.41,0-6.45.41-22.18.41-30.24,0-9.68,0-19.36-.41-25.81,9.28.41,19.36.41,26.22.41,9.67,0,22.98,0,35.49-.81"/><path class="cls-1" d="M921.54,362.89c21.37,4.03,29.85,15.73,33.47,52.02,2.42,21.78,4.03,51.62,6.05,67.35h-46.38c-6.45,0-7.66-3.22-8.47-12.9-3.23-81.46-5.65-88.72-16.13-88.72h-7.66c.41,40.73,1.21,76.22,2.42,101.62h-53.23c.41-43.55.81-86.7.81-151.22s0-107.68-.81-151.23h66.14c41.54,0,58.88,14.52,58.88,89.12,0,64.12-8.88,86.3-35.09,91.95v2.01ZM905.81,283.05c0-40.33-4.43-45.97-15.32-45.97-2.02,0-5.24,0-8.88.4,0,31.45,0,63.31.4,93.16h8.07c12.1,0,15.73-10.08,15.73-47.59"/><path class="cls-1" d="M1071.95,179.81v74.2c-16.94-.41-35.49-.81-49.61-.81v41.13c16.54,0,34.68,0,47.99-.8-.4,15.73-.4,47.59-.4,65.33-13.31-.81-31.05-.81-47.59-.81v43.15c14.52,0,33.07-.41,49.61-.81v81.86h-100.82c.41-41.94.8-86.7.8-151.22s-.4-110.91-.8-151.23h100.82Z"/><path class="cls-1" d="M1187.29,179.81v74.2c-16.94-.41-35.49-.81-49.6-.81v41.13c16.53,0,34.68,0,47.99-.8-.4,15.73-.4,47.59-.4,65.33-13.31-.81-31.05-.81-47.59-.81v43.15c14.52,0,33.07-.41,49.6-.81v81.86h-100.82c.4-41.94.81-86.7.81-151.22s-.41-110.91-.81-151.23h100.82Z"/><path class="cls-1" d="M1331.25,179.81c-.41,14.52-1.21,86.7-1.21,150.82,0,67.75,0,113.72.8,151.63h-55.25c-3.63-24.19-11.29-60.89-18.15-92.75-4.84-27.02-8.88-57.26-12.5-87.11h-1.61c1.61,34.68,2.82,65.33,2.82,90.33.41,45.97.41,77.83.81,89.52h-45.17c.4-40.73.4-86.7.4-151.22s0-110.09-.4-151.23h60.08c2.42,19.35,10.89,64.12,18.55,110.9,3.23,19.76,6.86,46.38,9.68,72.18h1.21c-1.21-28.63-2.82-56.86-2.82-78.23-.41-35.49-1.21-76.22-2.01-104.85h44.76Z"/><path class="cls-2" d="M643.11,12.89c-.02-2.75-.15-4.08,1.58-5.56,2.17-1.86,5.84-.09,5.84-.09.6.2,6.32,2.39,60.86,27.36,77.5,35.48,118.35-31.88,118.35-31.88,1.13-1.88,3.26-2.93,5.44-2.68,2.18.25,4.02,1.75,4.7,3.83,0,0,40.01,123.64-72.03,142.41-91.76,15.38-101.25,78.84-101.25,78.84-.4,2.86-2.91,4.95-5.79,4.84-2.89-.12-5.21-2.41-5.39-5.29l-12.32-211.77Z"/><path class="cls-2" d="M1366.85,562.69H49.61c-27.4,0-49.61-22.21-49.61-49.61V145.9c0-27.4,22.21-49.6,49.61-49.6h514.31c4.82,0,8.72,3.9,8.72,8.72v18.9c0,4.82-3.9,8.72-8.72,8.72H49.61c-7.32,0-13.25,5.93-13.25,13.25v367.18c0,7.32,5.93,13.25,13.25,13.25h1317.24c3.51,0,6.89-1.39,9.37-3.88,2.48-2.49,3.88-5.86,3.88-9.38V145.9c0-7.32-5.93-13.25-13.25-13.25h-499.29c-3.38,0-6.45-1.95-7.89-5-1.44-3.06-.98-6.67,1.17-9.28,4.63-5.58,9.17-11.16,11.59-16.76,1.37-3.22,4.52-5.3,8.02-5.3,57.82,0,486.4,0,486.4,0,27.39,0,49.6,22.2,49.6,49.6v367.18c0,13.16-5.22,25.78-14.53,35.08-9.3,9.31-21.92,14.53-35.07,14.53Z"/></g></svg>