<?xml version="1.0" encoding="UTF-8"?><svg id="Layer_2" xmlns="http://www.w3.org/2000/svg" xmlns:xlink="http://www.w3.org/1999/xlink" viewBox="0 0 460.89 101.5"><defs><style>.cls-1{fill:#1c1821;}.cls-2{fill:url(#linear-gradient-3);}.cls-3{fill:url(#linear-gradient);}.cls-4{fill:url(#linear-gradient-2);filter:url(#drop-shadow-1);}</style><linearGradient id="linear-gradient" x1="6.85" y1="3.13" x2="102.5" y2="106.89" gradientUnits="userSpaceOnUse"><stop offset="0" stop-color="#689ef9"/><stop offset=".06" stop-color="#698ef8"/><stop offset=".18" stop-color="#6b72f6"/><stop offset=".3" stop-color="#6c5ef5"/><stop offset=".42" stop-color="#6d52f4"/><stop offset=".55" stop-color="#6e4ef4"/><stop offset=".63" stop-color="#6d4cef"/><stop offset=".72" stop-color="#6a48e2"/><stop offset=".81" stop-color="#6541cd"/><stop offset=".9" stop-color="#5f38af"/><stop offset=".99" stop-color="#572c89"/><stop offset="1" stop-color="#572b86"/></linearGradient><linearGradient id="linear-gradient-2" x1="22.37" y1="-4.02" x2="83.49" y2="94.38" gradientUnits="userSpaceOnUse"><stop offset="0" stop-color="#ffffd2"/><stop offset=".05" stop-color="#ffffde"/><stop offset=".14" stop-color="#ffffea"/><stop offset=".26" stop-color="#fffff1"/><stop offset=".53" stop-color="#fffff4"/><stop offset=".67" stop-color="#f3f3f4"/><stop offset=".92" stop-color="#d6d6f4"/><stop offset="1" stop-color="#ccccf4"/></linearGradient><filter id="drop-shadow-1" x="12.2" y="9.5" width="86" height="92" filterUnits="userSpaceOnUse"><feOffset dx="4" dy="4"/><feGaussianBlur result="blur" stdDeviation="2.86"/><feFlood flood-color="#7141ce" flood-opacity=".3"/><feComposite in2="blur" operator="in"/><feComposite in="SourceGraphic"/></filter><linearGradient id="linear-gradient-3" x1="42.79" y1="20.45" x2="58.81" y2="46.25" xlink:href="#linear-gradient"/></defs><g id="Layer_1-2"><path class="cls-1" d="M274.37,42.56c-.93-1.9-2.13-3.45-3.61-4.64-1.48-1.19-3.21-2.07-5.19-2.66-1.98-.58-4.14-.87-6.46-.87-3.07,0-5.8.45-8.21,1.35-2.41.9-4.4,2.21-5.99,3.92-.81.88-1.51,1.88-2.1,2.99l-.4-.12c0-.08,0-.17,0-.26.03-1.19.07-2.35.12-3.49.05-1.14.08-2.44.08-3.92v-7.06c0-1.95.03-3.91.08-5.87h-14.99c0,1.8.01,3.85.04,6.14.03,2.3.05,4.78.08,7.45.03,2.67.04,5.56.04,8.68v9.91c0,4.12-.01,7.88-.04,11.26-.03,3.38-.05,6.54-.08,9.47-.03,2.93-.07,5.75-.12,8.44h14.99c-.05-.74-.08-1.4-.08-1.98v-1.82c0-.88-.02-1.73-.05-2.55l.34-.08c.52.73,1.14,1.47,1.85,2.2.95.98,2.13,1.84,3.53,2.58,1.4.74,3,1.32,4.8,1.74,1.8.42,3.78.63,5.95.63,2.85,0,5.42-.45,7.69-1.35,2.27-.9,4.19-2.35,5.75-4.36,1.56-2.01,2.78-4.61,3.65-7.81.87-3.2,1.31-7.02,1.31-11.46,0-3.65-.27-6.83-.79-9.55-.53-2.72-1.26-5.03-2.18-6.94ZM262.28,65.47c-.42,1.74-1.03,3.12-1.82,4.12-.79,1-1.84,1.76-3.13,2.26-1.3.5-2.87.75-4.72.75-1.74,0-3.32-.17-4.72-.52-1.4-.34-2.68-.81-3.85-1.39-.62-.31-1.22-.64-1.81-.98l.07-12.11c0-2.01.28-3.71.83-5.11.55-1.4,1.33-2.51,2.34-3.33,1-.82,2.15-1.43,3.45-1.82,1.29-.4,2.63-.59,4-.59,1.69-.05,3.16.12,4.4.52,1.24.4,2.26,1.08,3.05,2.06.79.98,1.41,2.26,1.86,3.85.45,1.59.67,3.54.67,5.87,0,2.54-.21,4.68-.63,6.42Z"/><path class="cls-1" d="M322.54,40.34c-2.22-2.06-4.88-3.61-7.97-4.64-3.09-1.03-6.57-1.55-10.43-1.55s-7.26.52-10.35,1.55c-3.09,1.03-5.74,2.58-7.93,4.64-2.19,2.06-3.89,4.6-5.07,7.61-1.19,3.01-1.78,6.53-1.78,10.55s.57,7.53,1.7,10.7c1.14,3.17,2.76,5.88,4.88,8.13,2.11,2.25,4.73,3.96,7.85,5.15,3.12,1.19,6.69,1.78,10.7,1.78s7.5-.59,10.62-1.78c3.12-1.19,5.79-2.91,8.01-5.15,2.22-2.25,3.91-4.96,5.07-8.13,1.16-3.17,1.74-6.74,1.74-10.7s-.62-7.53-1.86-10.55c-1.24-3.01-2.97-5.55-5.19-7.61ZM314.53,64.68c-.48,1.59-1.19,2.92-2.14,4-.95,1.08-2.11,1.9-3.49,2.46-1.38.55-2.96.83-4.76.83s-3.3-.28-4.68-.83c-1.37-.55-2.52-1.36-3.45-2.42-.93-1.06-1.65-2.39-2.18-4-.53-1.61-.79-3.53-.79-5.75s.26-4.12.79-5.71c.53-1.59,1.27-2.84,2.22-3.77.95-.92,2.1-1.63,3.45-2.1,1.35-.48,2.89-.71,4.64-.71s3.29.24,4.64.71c1.35.48,2.51,1.19,3.49,2.14.98.95,1.72,2.21,2.22,3.77.5,1.56.75,3.45.75,5.67s-.24,4.12-.71,5.71Z"/><path class="cls-1" d="M375.85,77.44c-.08-1.27-.15-2.63-.2-4.08-.05-1.45-.08-2.87-.08-4.24,0-1.85.01-3.63.04-5.35.03-1.72.07-3.45.12-5.19.05-1.74.08-3.62.08-5.63,0-2.75-.41-5.27-1.23-7.57-.82-2.3-2.11-4.25-3.88-5.87-1.77-1.61-4.11-2.88-7.02-3.81-2.91-.92-6.4-1.39-10.47-1.39-3.22,0-6.08.36-8.56,1.07-2.49.71-4.61,1.64-6.38,2.77-1.77,1.14-3.21,2.54-4.32,4.2-1.11,1.66-1.89,3.52-2.34,5.55-.45,2.04-.57,4.19-.36,6.46.63-.11,1.37-.2,2.22-.28.84-.08,1.72-.11,2.62-.08.9.03,1.85.04,2.85.04h3.21c1.08,0,2.07.03,2.97.08-.05-1.37.05-2.56.32-3.57.26-1,.75-1.81,1.47-2.42.71-.61,1.61-1.07,2.7-1.39,1.08-.32,2.34-.48,3.77-.48s2.71.17,3.69.52c.98.34,1.78.81,2.42,1.39.63.58,1.1,1.32,1.39,2.22.29.9.44,1.9.44,3.01s-.01,2.19-.04,3.41c0,.2,0,.39-.01.59-1.19-.21-2.58-.37-4.19-.47-2.09-.13-4.32-.2-6.7-.2-4.55,0-8.36.5-11.46,1.51-3.09,1-5.38,2.52-6.86,4.56-1.48,2.04-2.22,4.72-2.22,8.05,0,2.54.33,4.63.99,6.26.66,1.64,1.65,2.97,2.97,4,1.32,1.03,2.96,1.77,4.92,2.22,1.96.45,4.23.67,6.82.67,3.28,0,6.08-.45,8.4-1.35,2.32-.9,4.18-2.29,5.55-4.16.7-.95,1.25-2.03,1.66-3.24l.37.03c-.03.72-.07,1.45-.09,2.14-.03.95-.04,1.77-.04,2.46,0,.79.04,1.41.12,1.86.08.45.24.78.47.99.24.21.56.36.95.44.4.08.94.12,1.63.12h12.13c-.16-.53-.32-1.32-.48-2.38-.16-1.06-.28-2.22-.36-3.49ZM358.37,71.1c-.9.85-1.98,1.49-3.25,1.94-1.27.45-2.64.67-4.12.67-1.32,0-2.43-.11-3.33-.32-.9-.21-1.64-.5-2.22-.87-.58-.37-.99-.86-1.23-1.47-.24-.61-.36-1.31-.36-2.1,0-.95.17-1.76.51-2.42.34-.66.86-1.23,1.55-1.7.69-.48,1.57-.81,2.66-.99,1.08-.18,2.34-.28,3.77-.28,1.74,0,3.45.01,5.11.04,1.27.02,2.49.15,3.68.34-.01,1.53-.25,2.88-.71,4.06-.47,1.22-1.16,2.25-2.06,3.09Z"/><path class="cls-1" d="M412.29,45.89c.05-1.22.15-2.47.28-3.77.13-1.29.24-2.52.32-3.69.08-1.16.17-2.09.28-2.78-.85-.37-1.85-.63-3.01-.79-1.16-.16-2.3-.24-3.41-.24-2.22,0-4.22.34-5.99,1.03-1.77.69-3.32,1.73-4.64,3.13-1.32,1.4-2.38,3.25-3.17,5.55-.14.42-.27.87-.4,1.33l-.54-.07c.05-1.85.1-3.6.15-5.22.05-1.77.1-3.48.16-5.11h-12.77c.11,3.44.16,6.99.16,10.66v26.52c0,3.81-.05,7.43-.16,10.86h15.62c0-1.32-.03-2.81-.08-4.48-.05-1.66-.12-3.44-.2-5.31-.08-1.88-.12-3.77-.12-5.67v-5.47c0-2.75.18-5.05.55-6.9.37-1.85.96-3.29,1.78-4.32.82-1.03,1.9-1.77,3.25-2.22,1.35-.45,3.03-.67,5.03-.67,1.16,0,2.34.07,3.53.2,1.19.13,2.29.38,3.29.75,0-1,.03-2.11.08-3.33Z"/><path class="cls-1" d="M460.73,65.91v-30.01c0-2.59.01-5.02.04-7.29.03-2.27.07-4.49.12-6.66h-14.91c.11,1.22.15,2.43.12,3.65-.03,1.22-.04,2.45-.04,3.69v7.89c0,1.16.03,2.37.08,3.61,0,.22.02.47.03.69l-.14.04c-.55-.94-1.17-1.79-1.87-2.56-1.38-1.51-3.11-2.64-5.19-3.41-2.09-.77-4.61-1.15-7.57-1.15-2.75,0-5.37.5-7.85,1.51-2.49,1-4.65,2.54-6.5,4.6-1.85,2.06-3.28,4.71-4.28,7.93-1,3.22-1.51,6.95-1.51,11.18s.46,7.89,1.39,10.98c.92,3.09,2.22,5.64,3.88,7.65,1.67,2.01,3.66,3.49,5.99,4.44,2.32.95,4.86,1.43,7.61,1.43,2.01,0,3.83-.28,5.47-.83,1.64-.55,3.1-1.28,4.4-2.18,1.29-.9,2.4-1.95,3.33-3.17.92-1.22,1.69-2.48,2.3-3.81.02-.03.03-.07.04-.1l.59.09c-.08,1.3-.14,2.57-.19,3.81v5.47h14.83c-.05-2.7-.09-5.46-.12-8.29-.03-2.83-.04-5.89-.04-9.2ZM443.01,69.99c-1.03.95-2.21,1.65-3.53,2.1-1.32.45-2.77.67-4.36.67s-3.04-.24-4.2-.71c-1.16-.48-2.19-1.22-3.09-2.22-.9-1-1.56-2.35-1.98-4.04-.42-1.69-.63-3.81-.63-6.34s.21-4.51.63-6.22c.42-1.72,1.1-3.09,2.02-4.12.92-1.03,2.05-1.78,3.37-2.26,1.32-.48,2.88-.71,4.68-.71,1.64,0,3.18.12,4.64.36,1.45.24,2.79.61,4,1.11.62.26,1.2.55,1.74.87v13.2c0,1.9-.29,3.53-.87,4.88-.58,1.35-1.39,2.5-2.42,3.45Z"/><path class="cls-1" d="M136.38,51.99v-9.28c0-2.85.01-5.55.04-8.09.03-2.54.05-5.01.08-7.41.03-2.4.07-4.8.12-7.18h-14.99c.05,2.59.09,5.13.12,7.61.03,2.48.07,4.98.12,7.49.05,2.51.08,5.1.08,7.77v16.61c0,2.59-.01,5.14-.04,7.65-.03,2.51-.07,4.96-.12,7.33-.05,2.38-.11,4.68-.16,6.9h14.91c-.05-2.27-.09-4.53-.12-6.78-.03-2.25-.04-4.55-.04-6.9v-15.74Z"/><path class="cls-1" d="M188.78,42.52v-8.52c0-2.59.01-5.02.04-7.29.03-2.27.07-4.49.12-6.66h-14.91c.11,1.22.15,2.43.12,3.65-.03,1.22-.04,2.45-.04,3.69v7.89c0,1.16.03,2.37.08,3.61,0,.22.02.46.03.69l-.14.04c-.55-.94-1.17-1.79-1.87-2.56-1.38-1.51-3.11-2.64-5.19-3.41-2.09-.77-4.61-1.15-7.57-1.15-2.75,0-5.37.5-7.85,1.51-2.49,1-4.65,2.54-6.5,4.6-1.85,2.06-3.28,4.71-4.28,7.93-1,3.22-1.51,6.95-1.51,11.18s.46,7.89,1.39,10.98c.92,3.09,2.22,5.64,3.88,7.65,1.67,2.01,3.66,3.49,5.99,4.44,2.33.95,4.86,1.43,7.61,1.43,2.01,0,3.83-.28,5.47-.83,1.64-.55,3.1-1.28,4.4-2.18,1.29-.9,2.4-1.95,3.33-3.17.92-1.22,1.69-2.48,2.3-3.81.02-.03.03-.07.04-.1l.59.09c-.08,1.3-.14,2.57-.19,3.81v5.47h14.83c-.05-2.7-.09-5.46-.12-8.29-.03-2.83-.04-5.89-.04-9.2v-21.49ZM174.35,59.76c0,1.9-.29,3.53-.87,4.88-.58,1.35-1.39,2.5-2.42,3.45-1.03.95-2.21,1.65-3.53,2.1-1.32.45-2.77.67-4.36.67s-3.04-.24-4.2-.71c-1.16-.48-2.19-1.22-3.09-2.22-.9-1-1.56-2.35-1.98-4.04-.42-1.69-.63-3.81-.63-6.34s.21-4.51.63-6.22c.42-1.72,1.1-3.09,2.02-4.12.92-1.03,2.05-1.78,3.37-2.26,1.32-.48,2.88-.71,4.68-.71,1.64,0,3.18.12,4.64.36,1.45.24,2.79.61,4,1.11.62.26,1.2.55,1.74.87v13.2Z"/><path class="cls-1" d="M219.78,32.73c-2.22,0-4.22.34-5.99,1.03-1.77.69-3.32,1.73-4.64,3.13-1.32,1.4-2.38,3.25-3.17,5.55-.15.42-.28.87-.41,1.33l-.53-.07c.05-1.85.1-3.6.15-5.22.05-1.77.11-3.47.16-5.11h-12.77c.11,3.44.16,6.99.16,10.66v26.52c0,3.81-.05,7.43-.16,10.86h15.62c0-1.32-.03-2.81-.08-4.48-.05-1.66-.12-3.44-.2-5.31-.08-1.88-.12-3.77-.12-5.67v-5.47c0-2.75.18-5.05.55-6.9.37-1.85.96-3.29,1.78-4.32.82-1.03,1.9-1.77,3.25-2.22,1.35-.45,3.02-.67,5.03-.67,1.16,0,2.34.07,3.53.2,1.19.13,2.29.38,3.29.75,0-1,.03-2.11.08-3.33.05-1.22.15-2.47.28-3.77.13-1.29.24-2.52.32-3.69.08-1.16.17-2.09.28-2.78-.85-.37-1.85-.63-3.01-.79-1.16-.16-2.3-.24-3.41-.24Z"/><rect class="cls-3" width="101.45" height="101.45" rx="25.57" ry="25.57"/><path class="cls-4" d="M82.85,27.46c-1.98-2.17-5.15-2.57-7.61-2.49-.38.01-.71-.27-.77-.65-.52-3.68-2.24-5.44-3.36-6.21-3.94-2.69-11.52-3.88-20.17-3.88s-15.54,1.4-19.6,3.72c-1.26.72-3.13,2.54-3.71,6.4-.06.39-.4.66-.79.64-2.51-.17-6.1.09-8.25,2.46-1.86,2.05-2.18,4.95-.95,8.63,3.13,9.36,13.71,13.55,17.66,14.82.18.06.33.18.42.35.89,1.62,1.86,3.31,2.93,5.09.65,1.08,2.8,4.49,5.12,8.05.4.62.57,1.45.48,2.27-.13,1.13-.19,2.3-.19,3.51,0,.97.04,1.92.13,2.84.08.89-.18,1.76-.67,2.35l-5.92,7.05c-1.39,1.66-.53,4.79,1.31,4.79h24.28c1.85,0,2.7-3.13,1.31-4.79l-5.92-7.05c-.49-.59-.75-1.46-.67-2.35.08-.92.13-1.87.13-2.84,0-1.31-.08-2.58-.23-3.79-.1-.8.09-1.62.48-2.23,2.26-3.48,4.33-6.75,4.96-7.81,1.11-1.84,2.12-3.6,3.04-5.28.09-.16.24-.29.41-.35,4.31-1.46,14.11-5.69,17.1-14.63,1.23-3.68.91-6.59-.95-8.63ZM30.06,42.78c-3.08-1.88-6.17-4.6-7.42-8.36-.55-1.64-.6-2.92-.15-3.42.49-.54,2.29-1,4.66-.7.33.04.6.3.65.63.48,2.97,1.52,6.57,3.33,10.91.28.67-.46,1.31-1.08.93ZM78.81,34.42c-1.16,3.47-3.88,6.06-6.72,7.91-.62.4-1.38-.24-1.09-.92,1.75-4.19,2.76-7.66,3.25-10.53.06-.34.34-.6.69-.63,1.64-.11,3.39.06,4.02.75.46.5.4,1.78-.15,3.42Z"/><path class="cls-2" d="M60.44,31.66l-4.18,3.03c-.42.3-.59.84-.43,1.33l1.6,4.91c.36,1.09-.9,2-1.83,1.33l-4.18-3.03c-.42-.3-.98-.3-1.4,0l-4.18,3.03c-.93.68-2.18-.23-1.83-1.33l1.6-4.91c.16-.49-.02-1.03-.43-1.33l-4.18-3.03c-.93-.68-.45-2.15.7-2.15h5.16c.51,0,.97-.33,1.13-.82l1.6-4.91c.36-1.09,1.9-1.09,2.26,0l1.6,4.91c.16.49.62.82,1.13.82h5.16c1.15,0,1.63,1.47.7,2.15Z"/></g></svg>