<?xml version="1.0" encoding="UTF-8"?><svg id="Layer_2" xmlns="http://www.w3.org/2000/svg" viewBox="0 0 101.45 101.45"><defs><style>.cls-1{fill:#fff;}</style></defs><g id="Layer_1-2"><path class="cls-1" d="M27.8,30.93c-.05-.33-.32-.59-.65-.63-2.37-.29-4.17.16-4.66.7-.45.5-.4,1.78.15,3.42,1.26,3.75,4.34,6.48,7.42,8.36.62.38,1.36-.26,1.08-.93-1.82-4.34-2.85-7.94-3.33-10.91Z"/><path class="cls-1" d="M74.94,30.25c-.35.02-.63.28-.69.63-.5,2.87-1.5,6.34-3.25,10.53-.28.68.48,1.32,1.09.92,2.84-1.86,5.56-4.44,6.72-7.91.55-1.64.6-2.92.15-3.42-.63-.69-2.39-.86-4.02-.75Z"/><path class="cls-1" d="M75.87,0H25.57C11.51,0,0,11.51,0,25.57v50.3c0,14.07,11.51,25.57,25.57,25.57h50.3c14.07,0,25.57-11.51,25.57-25.57V25.57c0-14.07-11.51-25.57-25.57-25.57ZM83.8,36.09c-2.99,8.95-12.79,13.17-17.1,14.63-.18.06-.32.18-.41.35-.92,1.68-1.93,3.43-3.04,5.28-.64,1.06-2.7,4.34-4.96,7.81-.4.61-.58,1.43-.48,2.23.15,1.21.23,2.48.23,3.79,0,.97-.04,1.92-.13,2.84-.08.89.18,1.76.67,2.35l5.92,7.05c1.39,1.66.53,4.79-1.31,4.79h-24.28c-1.85,0-2.7-3.13-1.31-4.79l5.92-7.05c.49-.59.75-1.46.67-2.35-.08-.92-.13-1.87-.13-2.84,0-1.21.07-2.39.19-3.51.09-.82-.08-1.65-.48-2.27-2.32-3.57-4.47-6.97-5.12-8.05-1.07-1.77-2.04-3.47-2.93-5.09-.09-.17-.24-.29-.42-.35-3.96-1.27-14.53-5.46-17.66-14.82-1.23-3.68-.91-6.59.95-8.63,2.15-2.37,5.74-2.63,8.25-2.46.39.03.73-.25.79-.64.59-3.86,2.46-5.68,3.71-6.4,4.06-2.32,10.96-3.72,19.6-3.72s16.23,1.19,20.17,3.88c1.12.77,2.83,2.52,3.36,6.21.05.38.38.66.77.65,2.45-.08,5.63.32,7.61,2.49,1.86,2.05,2.18,4.95.95,8.63Z"/><path class="cls-1" d="M60.44,31.66l-4.18,3.03c-.42.3-.59.84-.43,1.33l1.6,4.91c.36,1.09-.9,2-1.83,1.33l-4.18-3.03c-.42-.3-.98-.3-1.4,0l-4.18,3.03c-.93.68-2.18-.23-1.83-1.33l1.6-4.91c.16-.49-.02-1.03-.43-1.33l-4.18-3.03c-.93-.68-.45-2.15.7-2.15h5.16c.51,0,.97-.33,1.13-.82l1.6-4.91c.36-1.09,1.9-1.09,2.26,0l1.6,4.91c.16.49.62.82,1.13.82h5.16c1.15,0,1.63,1.47.7,2.15Z"/></g></svg>